<svg xmlns="http://www.w3.org/2000/svg" width="64" height="64" viewBox="0 0 64 64" fill="none">
  <!-- Background -->
  <rect width="64" height="64" rx="12" fill="#1E293B"/>
  
  <!-- Grid Pattern -->
  <path d="M8 8 L56 8 L56 56 L8 56 Z" stroke="#334155" stroke-width="0.5" fill="none"/>
  <path d="M16 8 L16 56" stroke="#334155" stroke-width="0.5"/>
  <path d="M24 8 L24 56" stroke="#334155" stroke-width="0.5"/>
  <path d="M32 8 L32 56" stroke="#334155" stroke-width="0.5"/>
  <path d="M40 8 L40 56" stroke="#334155" stroke-width="0.5"/>
  <path d="M48 8 L48 56" stroke="#334155" stroke-width="0.5"/>
  <path d="M8 16 L56 16" stroke="#334155" stroke-width="0.5"/>
  <path d="M8 24 L56 24" stroke="#334155" stroke-width="0.5"/>
  <path d="M8 32 L56 32" stroke="#334155" stroke-width="0.5"/>
  <path d="M8 40 L56 40" stroke="#334155" stroke-width="0.5"/>
  <path d="M8 48 L56 48" stroke="#334155" stroke-width="0.5"/>
  
  <!-- Central Territory (Hexagon) -->
  <path d="M32 20 L40 24 L40 32 L32 36 L24 32 L24 24 Z" fill="#3B82F6" stroke="#fff" stroke-width="1"/>
  
  <!-- Surrounding Territories -->
  <path d="M44 28 L50 31 L50 37 L44 40 L38 37 L38 31 Z" fill="#F97316" stroke="#fff" stroke-width="1"/>
  <path d="M20 28 L26 31 L26 37 L20 40 L14 37 L14 31 Z" fill="#10B981" stroke="#fff" stroke-width="1"/>
  <path d="M32 42 L38 45 L38 51 L32 54 L26 51 L26 45 Z" fill="#8B5CF6" stroke="#fff" stroke-width="1"/>
  
  <!-- Dollar Symbol -->
  <path d="M32 25 L32 31 M30 26 L34 26 M30 30 L34 30" stroke="white" stroke-width="1.5" stroke-linecap="round"/>
</svg>
